# xmcd
# 
# Track frame offsets:
#     150
#     21847
#     40025
#     56855
#     69542
#     82549
#     111990
#     132746
#     147710
#     161730
#     185740
# 
# Disc length: 2736
# 
# Revision: 1
# Processed by: cddbd v1.5.2PL0 Copyright (c) Steve Scherf et al.
# Submitted via: BonkEnc v1.0
# 
DISCID=a30aae0b
DTITLE=sefarat - volume 2-ladino
DYEAR=2005
DGENRE=
TTITLE0=mýsýrlu
TTITLE1=pasharo d'ermozuro
TTITLE2=tres de'la noche
TTITLE3=esterina
TTITLE4=ýjika dile
TTITLE5=para ke kero
TTITLE6=bre sarika
TTITLE7=aman aman
TTITLE8=lavida dor
TTITLE9=mýsýrlu(slow)
TTITLE10=vakti geldi
EXTD=
EXTT0=
EXTT1=
EXTT2=
EXTT3=
EXTT4=
EXTT5=
EXTT6=
EXTT7=
EXTT8=
EXTT9=
EXTT10=
PLAYORDER=
